<svg width="111" height="43" viewBox="0 0 111 43" fill="none" xmlns="http://www.w3.org/2000/svg">
<path fill-rule="evenodd" clip-rule="evenodd" d="M21 42.5C32.598 42.5 42 33.098 42 21.5C42 9.90202 32.598 0.5 21 0.5C9.40202 0.5 0 9.90202 0 21.5C0 33.098 9.40202 42.5 21 42.5ZM26.5535 7.97241H12.4449V11.2921H15.7646V30.3803H12.4449V33.7H34.4378V23.7409H30.7032V27.0606C30.7032 27.3995 30.672 27.7487 30.6098 28.1084C30.5545 28.468 30.4646 28.8242 30.3401 29.1769C30.2225 29.5296 30.0496 29.8201 29.8214 30.0483C29.5931 30.2696 29.3338 30.3803 29.0433 30.3803H22.4039V11.2921H26.5535V7.97241ZM50.3358 14.6118H42.4515V17.9315H44.5263V25.8157C44.5263 26.86 44.5817 27.7902 44.6923 28.6063C44.8099 29.4155 45.0105 30.1763 45.294 30.8886C45.5845 31.594 45.9614 32.1785 46.4248 32.6418C46.8881 33.0983 47.4829 33.4579 48.2091 33.7207C48.9353 33.9835 49.7825 34.1149 50.7507 34.1149C53.448 34.1149 55.381 33.036 56.5498 30.8782L58.0022 33.7H64.4444V30.3803H62.3696V14.6118H54.4854V17.9315H56.5602L56.5187 27.5897C55.9723 28.468 55.3914 29.1527 54.7759 29.6437C54.1673 30.1348 53.5725 30.3803 52.9915 30.3803C52.3553 30.3803 51.8504 30.2662 51.4769 30.0379C51.1104 29.8097 50.8268 29.3913 50.6263 28.7827C50.4326 28.1741 50.3358 27.3234 50.3358 26.2307V14.6118ZM89.4716 30.3803V21.1993C89.4716 20.1688 89.2606 19.2144 88.8387 18.3361C88.4169 17.4577 87.8394 16.7177 87.1063 16.116C86.3732 15.5143 85.5018 15.044 84.492 14.7051C83.4823 14.3663 82.4034 14.1968 81.2553 14.1968C80.3701 14.1968 79.554 14.2452 78.8071 14.3421C78.0671 14.432 77.4308 14.553 76.8982 14.7051C76.3657 14.8573 75.8712 15.0509 75.4148 15.2861C74.9652 15.5143 74.5918 15.746 74.2944 15.9811C73.997 16.2094 73.71 16.4687 73.4333 16.7592C73.1083 17.0704 72.8524 17.4335 72.6656 17.8485C72.4858 18.2634 72.3959 18.7061 72.3959 19.1763C72.3959 20.0962 72.7175 20.8811 73.3607 21.5312C74.0108 22.1744 74.7958 22.496 75.7156 22.496C76.6354 22.496 77.4169 22.1744 78.0601 21.5312C78.7102 20.8811 79.0353 20.0962 79.0353 19.1763C79.0353 18.6784 78.9281 18.2046 78.7137 17.7551C79.0941 17.5545 79.5194 17.4543 79.9897 17.4543C80.5776 17.4543 81.0824 17.4992 81.5043 17.5891C81.9262 17.679 82.3066 17.8381 82.6455 18.0663C82.9843 18.2876 83.2368 18.6092 83.4028 19.0311C83.5757 19.4461 83.6621 19.9648 83.6621 20.5872V24.9858C83.0051 24.4049 82.2167 23.983 81.2968 23.7202C80.377 23.4504 79.2151 23.3156 77.8112 23.3156C76.0683 23.3156 74.6367 23.7893 73.5163 24.7368C72.3959 25.6774 71.8357 26.8635 71.8357 28.2951C71.8357 29.125 71.981 29.9031 72.2714 30.6293C72.5688 31.3554 72.9769 31.9779 73.4956 32.4966C74.0212 33.0153 74.654 33.4233 75.394 33.7207C76.1409 34.025 76.9467 34.1772 77.8112 34.1772C79.4779 34.1772 80.7747 33.9904 81.7014 33.617C82.6351 33.2435 83.4546 32.5519 84.1601 31.5422L85.0834 33.7H91.5464V30.3803H89.4716ZM83.6621 27.6623V29.0939C83.2402 29.5849 82.7388 30.0034 82.1579 30.3492C81.5838 30.6881 81.0306 30.8575 80.498 30.8575C79.5575 30.8575 78.9143 30.65 78.5685 30.2351C78.2227 29.8201 78.0498 29.1734 78.0498 28.2951C78.0498 27.562 78.2503 27.0329 78.6515 26.7079C79.0526 26.3759 79.7442 26.2099 80.7263 26.2099C81.1827 26.2099 81.6772 26.3517 82.2097 26.6353C82.7492 26.9119 83.2333 27.2542 83.6621 27.6623ZM98.9376 30.5878C98.9376 31.5076 99.2592 32.2926 99.9024 32.9427C100.553 33.5859 101.338 33.9075 102.257 33.9075C103.177 33.9075 103.959 33.5859 104.602 32.9427C105.252 32.2926 105.577 31.5076 105.577 30.5878C105.577 29.6679 105.252 28.8864 104.602 28.2432C103.959 27.5931 103.177 27.2681 102.257 27.2681C101.338 27.2681 100.553 27.5931 99.9024 28.2432C99.2592 28.8864 98.9376 29.6679 98.9376 30.5878Z" fill="white"/>
</svg>
